<svg viewBox="-1 -1 30 30" xmlns="http://www.w3.org/2000/svg">
	<title>Codepen</title>
	<path d="M22.586 14l3.008 2.005v-4.01zM15.203 9.078l5.214 3.482 4.21-2.807-9.424-6.27zM15.203 24.536l9.425-6.27-4.21-2.826-5.215 3.482zM9.753 14L14 16.844 18.266 14 14 11.156zM3.372 9.753l4.21 2.807 5.215-3.482V3.482zM3.372 18.266l9.425 6.27v-5.614L7.583 15.44zM2.406 16.005L5.414 14l-3.008-2.005z"/>
	<path d="M0 9.753c0-.377.176-.71.53-1.003L13.325.237c.206-.134.43-.2.674-.2.243 0 .468.066.674.2L27.47 8.75c.354.292.53.626.53 1.003v8.513c0 .39-.176.717-.53.984l-12.796 8.53c-.206.135-.43.202-.674.202-.22 0-.444-.067-.674-.2L.53 19.25c-.354-.267-.53-.595-.53-.984V9.753z"/>
</svg>