<svg viewBox="0 0 30 30" xmlns="http://www.w3.org/2000/svg">
<title>Github</title>
<path d="M1 15.353c0-1.944.37-3.803 1.107-5.58C2.847 8 3.84 6.472 5.095 5.192c1.253-1.28 2.743-2.298 4.47-3.055C11.293 1.378 13.105 1 15 1c1.905 0 3.72.378 5.448 1.135 1.727.757 3.215 1.776 4.464 3.056 1.25 1.28 2.242 2.807 2.98 4.577.74 1.77 1.108 3.633 1.108 5.586 0 3.13-.89 5.94-2.673 8.43-1.782 2.49-4.08 4.218-6.897 5.18-.328.065-.57.026-.725-.12-.155-.144-.232-.333-.232-.567l.006-1.43c.004-.915.006-1.752.006-2.508 0-1.215-.314-2.098-.943-2.65.702-.084 1.328-.198 1.88-.343.55-.145 1.12-.385 1.702-.722.583-.336 1.07-.752 1.463-1.247.392-.496.713-1.15.964-1.963.25-.813.376-1.752.376-2.817 0-1.504-.48-2.785-1.436-3.84.055-.14.105-.304.15-.49.046-.188.087-.45.124-.786.036-.336.02-.727-.048-1.17-.07-.444-.19-.895-.363-1.353-.036-.01-.084-.02-.143-.028-.06-.01-.205-.006-.438.013-.232.02-.485.07-.758.154-.274.084-.636.24-1.087.47-.452.23-.93.516-1.43.862-1.076-.31-2.242-.473-3.5-.492-1.258.02-2.424.182-3.5.49-.5-.345-.975-.632-1.422-.86-.446-.23-.81-.384-1.094-.464-.282-.08-.53-.133-.745-.16-.215-.03-.368-.034-.46-.015l-.135.027c-.53 1.364-.575 2.63-.137 3.8-.957 1.073-1.436 2.353-1.436 3.84 0 1.064.126 2.003.376 2.816.25.813.572 1.467.964 1.963.392.495.88.91 1.463 1.247.583.337 1.15.58 1.702.73.552.15 1.174.26 1.866.335-.483.44-.78 1.08-.888 1.92-.256.122-.527.216-.814.28-.286.066-.63.097-1.03.092-.402-.005-.8-.138-1.197-.4-.397-.26-.74-.65-1.033-1.163-.018-.037-.047-.086-.088-.147-.04-.06-.128-.173-.26-.336-.132-.164-.276-.31-.43-.435-.156-.127-.356-.246-.602-.358-.246-.112-.502-.178-.766-.196h-.137c-.054 0-.14.016-.253.05-.114.03-.19.073-.232.125-.04.052-.023.14.055.26.077.122.234.266.47.435.03.01.063.028.104.056.042.03.128.096.26.204.133.107.258.234.377.378.118.145.255.348.41.61.155.262.29.547.41.855l.034.098c.015.038.05.117.11.238.06.122.13.24.212.358.082.118.194.25.335.393.142.145.294.276.458.393.164.117.37.226.616.33.247.102.51.177.787.223.278.046.604.063.977.05.374-.015.77-.07 1.19-.163 0 .468.002.982.007 1.542l.007.896c0 .225-.077.41-.232.56-.155.15-.397.197-.725.14-2.816-.96-5.115-2.69-6.897-5.185C1.89 21.297 1 18.484 1 15.354z"/>
</svg>