<svg viewBox="0 0 30 30" xmlns="http://www.w3.org/2000/svg">
	<title>Twitter</title>
	<path d="M2.375 24.363c2.667 0 5.042-.863 7.125-2.588-1.24-.022-2.35-.426-3.328-1.212-.98-.786-1.656-1.788-2.03-3.008.405.077.764.115 1.077.115.488 0 .994-.07 1.514-.214-1.323-.286-2.42-.983-3.296-2.093-.876-1.11-1.313-2.39-1.313-3.84v-.083c.833.472 1.703.725 2.61.758-.792-.55-1.417-1.27-1.876-2.16-.46-.89-.688-1.85-.688-2.884 0-1.11.26-2.127.78-3.05 1.44 1.87 3.183 3.36 5.236 4.476 2.052 1.115 4.255 1.733 6.61 1.854-.105-.43-.157-.89-.157-1.385 0-1.67.563-3.097 1.688-4.278C17.453 3.592 18.808 3 20.39 3c1.667 0 3.063.637 4.188 1.912 1.333-.286 2.547-.775 3.64-1.467-.437 1.45-1.275 2.566-2.515 3.346 1.136-.142 2.234-.46 3.297-.955-.76 1.22-1.714 2.27-2.86 3.15 0 .075.003.202.008.378.006.175.008.307.008.395 0 1.34-.16 2.693-.484 4.055-.323 1.363-.79 2.687-1.4 3.973-.608 1.285-1.387 2.486-2.334 3.6-.948 1.117-2.01 2.092-3.188 2.927-1.177.835-2.534 1.492-4.07 1.97-1.537.478-3.16.717-4.867.717-3.178 0-6.115-.907-8.813-2.72.5.055.958.083 1.375.083z"/>
</svg>