<svg xmlns="http://www.w3.org/2000/svg" viewBox="0 0 640 250"><path d="M33.9 91.9c0-2.1.1-4.4 1-6.4.7-1.5 1.8-2.6 3.1-3.5 3.8-2.8 8.2-4.9 11.4-8.5 4.9-.1 9.3-3.2 11.2-7.7 1.8-4.5.7-9.8-2.7-13.2 1.6.4 3.3.6 5 .4.8 1.3 1.8 2.5 3 3.5 1.1 9.8 9.1 17.4 18.9 18 .3 3.6.1 7.3.1 10.8v13.6h-51v-7zm3.9-25.7c1 2.1 2.6 4 4.6 5.4-3 2.3-6.5 4.1-9.4 6.5-.2-2.5-.6-5.1-1-7.8 2.2-1.1 4.1-2.4 5.8-4.1zm110.7 23.2c0-3.6 2-6.3 4.9-8.2 1.7-1.1 3.5-2.2 5.2-3.3 2.6 4.3 5.6 9 5.7 14.1v6.8h-15.8v-9.4zm-57.5 0c0-3.2 1.6-6 4.2-7.8.9-.6 1.9-1.2 2.8-1.8 2.6-1.7 5.2-3.3 7.8-5 8.5 2.6 17.6-2.8 19.4-11.5 3.3 6.5 9.8 10.7 17 11.1.3 3.6.1 7.3.1 10.8v13.6H91v-9.4zm14.9-43.8c-.4.1-.9.3-1.3.5-.6-1.3-1.2-2.5-2-3.7.6-.1 1.2-.3 1.8-.5.3 1.3.8 2.6 1.5 3.7zM91 75.8v-1.9c2.8-.7 5.4-2 7.6-3.8.4.5.8.9 1.3 1.4-3 1.9-6.1 3.7-8.9 5.8v-1.5zm57.5 0v-1.9l1.8-.6c.8.4 1.7.8 2.6 1-1.5 1-3 1.9-4.5 2.9l.1-1.4zm15.5-.7c.8.2 1.6.4 2.5.4-.5.5-.8 1.1-1.2 1.8-.4-.8-.9-1.5-1.3-2.2zm26.2-10.3c2-1.9 3.2-4.7 3.5-7.5.9 1.4 2 2.6 3.2 3.7-2.4 7.1 3.6 14.4 11 13.3 1.7 3 3.5 5.8 5.1 8.8 1.4 2.6 2.6 5.5 2.6 8.5.1 2.4 0 4.8 0 7.1h-45.3V81.9c0-2.7 2.1-4.1 4.2-5.4 3.7-2.2 8.1-4.3 9.6-8.6 2.3-.3 4.4-1.4 6.1-3.1zm64.3 8.5c-.4 2.7-.7 5.4-1 7.8-2.9-2.5-6.3-4.2-9.4-6.5 2-1.3 3.6-3.2 4.5-5.4 1.8 1.7 3.8 3 5.9 4.1zm83.1-7.1l.1-.1c.9 2.2 2.5 4.2 4.6 5.4-3 2.3-6.5 4.1-9.4 6.5-.2-2.5-.6-5.1-1-7.8 2.1-1 4-2.3 5.7-4zm49.3 9.6v-1.9c2.8-.7 5.4-2 7.6-3.8.4.5.8.9 1.3 1.4-3 1.9-6.1 3.7-8.9 5.8v-1.5zm-46.5 4.4c4.3-2.8 7-4.7 8.7-6.7 4.6-.1 8.8-2.8 10.8-6.9 2.2-4.5 1.3-9.8-1.9-13.5h.7c.8 1.3 1.8 2.5 3 3.5 1.3 9.7 9.2 17.4 19.1 17.9.3 3.6.1 7.3.1 10.8v13.6h-47.1c0-3-.1-6.1.1-9.1.1-2.1.5-4.1 1.8-5.8 1.1-1.6 3-2.7 4.7-3.8zM299.1 95c0-2.1.1-4.4 1-6.4.7-1.5 1.8-2.6 3.1-3.5 3.8-2.8 8.2-4.9 11.4-8.5 3.4 0 6.7-1.6 9-4.1.9 0 1.7-.1 2.6-.3.9 6.3 1.5 12.6 1.5 18.9v7.8h-28.5V95h-.1zm3.9-25.7l.1-.1c.9 2.2 2.5 4.1 4.5 5.4-3 2.3-6.5 4.1-9.4 6.6-.2-2.5-.6-5.1-1-7.8 2.2-1.1 4.1-2.4 5.8-4.1zM258.9 95c0-6.6.5-13.2 1.5-19.7 5.4.9 11-.3 15.5-3.4 4.4 3.1 10.2 4.3 15.5 3.4 1.2 7.9 1.5 15.7 1.5 23.7h-34.1v-4h.1zm-37.2-3.1v-9c0-1.3 0-2.4.8-3.5 1.9-2.4 5.3-3.6 7.7-5.2 2 1.5 4.5 2.4 7 2.4 3.1 3.6 7.6 5.7 11.4 8.5 1.3 1 2.5 2.1 3.1 3.6.9 2 .9 4.2.9 6.3v3.9h-31v-7h.1zm-8-20.3c1.6-1.6 2.6-3.8 2.9-6.1 2.1-.7 4.1-1.7 5.9-3 .8 1.3 1.7 2.4 2.9 3.3.2 1.3.5 2.4 1 3.6-3.5 2.2-7.7 4-9.7 7.9-1.1-1.8-2.2-3.7-3.3-5.5.1-.1.2-.2.3-.2zm213 8.1c1 0 2.1-.1 3.1-.3 1 6.5 1.3 13 1.3 19.6h-44.2v-5.3c0-1.9-.2-4 .2-5.9 1-5 6.1-7.3 10.1-9.8 1.6-1 3.1-2 4.7-3 3.8 1.2 7.9.8 11.4-1 3.3 3.5 8.3 5.7 13.4 5.7zm135.9-16.8c.2-.1.4-.3.6-.5 1.5 2.4 3.6 4.2 6.3 5.2-1.8 1.8-4.3 2.8-6.4 4.1-2.2 1.4-4.4 3.1-5.7 5.5-1.1-1.8-2.2-3.7-3.2-5.5 1.8-1.6 2.8-3.9 3.1-6.3 1.9-.5 3.7-1.4 5.3-2.5zm42.2 8.4c-.4 2.9-.7 5.7-1 8.3-3.1-2.6-6.7-4.5-9.9-7 2.1-1.4 3.8-3.4 4.8-5.8 1.7 2 3.8 3.4 6.1 4.5zM576 69c2.4 3.6 6.3 5.8 10.6 5.8 3.4 3.9 8.2 6.1 12.2 9.1 1.4 1.1 2.6 2.4 3.3 4.1.7 2 .8 4.2.8 6.3v4.6h-40.4V82.5c0-.7 0-1.3.2-2 .5-1.4 1.9-2.4 3.1-3.2 3.7-2.3 8.3-4.1 10.2-8.3zm-69.2 20.4c0-3.2 1.6-6 4.2-7.8.9-.6 1.9-1.2 2.8-1.8 2.6-1.7 5.2-3.3 7.8-5 6.2 1.9 12.9-.4 16.7-5.6 2 3.7 6.1 5.7 10.3 5.1 1.7 2.9 3.5 5.8 5.1 8.8 1.4 2.6 2.6 5.5 2.6 8.5.1 2.4 0 4.8 0 7.1h-49.6v-9.3h.1zm-40.5 2.5v-8.8c0-1.2-.1-2.3.6-3.4 1.5-2.2 4.5-3.4 6.7-4.8 2.7-1.6 5.4-3.7 6.5-6.8 1.9-.4 3.5-1.2 5-2.4 3.5 5.2 9.4 8.4 15.6 8.8.3 3.6.1 7.3.1 10.8v13.6h-34.5v-7zm-29.9 4.7c0-1.8.1-3.8.8-5.5.6-1.3 1.6-2.3 2.8-3.2 3.3-2.4 7.2-4.3 9.9-7.4 1.9 0 3.6-.6 5.2-1.5 2.4 4 5 8.4 5 13.2v6.7h-23.7v-2.3zm.6-20.1c1.1-.7 2.1-1.6 3-2.5.8 1.9 2.2 3.7 4 4.8-2.7 2-5.7 3.6-8.2 5.7-.2-2.2-.5-4.5-.8-6.8.6-.4 1.4-.8 2-1.2zm30-14c1.4 2.4 3.6 4.3 6.3 5.2-1.8 1.8-4.3 2.8-6.4 4.1-2.2 1.4-4.4 3.1-5.7 5.5l-1.8-3c.9-1.9 1.2-3.9.9-6 .4-.9.6-1.9.7-2.9 2.2-.6 4.2-1.6 6-2.9zm39.8 13.3v-1.9c2.8-.7 5.4-2 7.6-3.8.4.5.8.9 1.3 1.4-3 1.9-6.1 3.7-8.9 5.8v-1.5zm102.6 23.1c0-4.2-.1-8.5.2-12.7.3-4.3.8-8.6 1.4-12.8 7.2 1.3 14.7-1.2 19.9-6.4 5.1-5.1 7.4-12.7 6.2-19.8-1.2-6.8-5.6-12.9-11.7-16.1-6.8-3.5-15.2-3.4-21.8.5-6.6 3.8-10.8 11-11.2 18.6-2.6-1.2-5.6-1.5-8.4-.8-2.7-3.9-7.5-6-12.2-5.2-.7-7.8-6-14.7-13.4-17.4-7.5-2.8-16.4-.6-21.9 5.4-3.4 3.7-5.3 8.6-5.4 13.6-3.5-1.2-7.2-1-10.6.3-.6-1.3-1.2-2.5-2-3.7 6.7-1.4 12.5-6.2 15.2-12.5 2.9-6.9 2-15.1-2.5-21.2-4.3-5.9-11.6-9.2-18.9-8.6-7 .6-13.4 4.7-16.8 10.8-4.2 7.3-3.5 16.7 1.5 23.5-1.5.4-3 .9-4.4 1.7-.7-5.9-5-11.1-10.7-12.8-5.9-1.8-12.6.3-16.4 5.2-9.7-5.6-22.4-2.2-27.9 7.5-1.4 2.5-2.3 5.3-2.6 8.2-6.8-3.4-15.2-2.1-20.8 3.1-4.1-2.4-9-2.8-13.5-1-.6-1.3-1.2-2.5-2-3.7 6.7-1.5 12.5-6.2 15.2-12.6 3-7.1 1.9-15.6-2.9-21.7-4.4-5.6-11.6-8.7-18.6-8.1-6.9.6-13.2 4.7-16.6 10.7-4.2 7.3-3.6 16.8 1.5 23.6-1.6.4-3 .9-4.4 1.7-.9-7.6-7.7-13.6-15.3-13.5-7.6.1-14.2 6.2-15 13.7-.5 4.8 1.4 9.7 5 13-1.2.2-2.3.5-3.4 1-.3-6.9-4-13.3-9.7-17.1-6.2-4.1-14.4-4.5-21.1-1.2-3.7 1.8-6.8 4.8-8.9 8.3-6.8-8.1-19.4-10-28.2-3.8-9.5-6.3-22.6-4.1-29.2 5.2-1.7 2.4-2.9 5.1-3.6 7.9-2.4-4.1-7.7-6.2-12.3-5.4-.8-7.9-6.3-15-13.8-17.5-7.8-2.6-16.8-.1-22.1 6.2-3.4 4.1-5.1 9.5-4.6 14.8-2.7-2.9-6.9-4.2-10.9-3.5-.4-4.5-2.3-8.7-5.3-12 5.3-9.3 2.7-21.8-6-28.1-5.3-3.9-12.4-5-18.7-3.1-6.1 1.8-11.1 6.4-13.5 12.3-2.9 6.9-1.8 15.1 2.7 21.1-1.5.4-3 .9-4.4 1.7-.9-7.4-7.2-13.3-14.7-13.5C120 12 112.4 2.4 102.1.4c-10.4-2-21 4.4-24.3 14.5-2.1 6.6-.9 13.9 3.3 19.5-1.5.4-3 .9-4.4 1.7-.9-7.6-7.8-13.7-15.5-13.5-7.6.2-14.1 6.3-14.8 13.8-.5 4.8 1.5 9.7 5.1 12.9-2.5-.5-5.1-.1-7.4.9-.3-6.8-3.9-13.2-9.5-17-5.9-3.9-13.7-4.7-20.2-1.8-5.9 2.5-10.5 7.8-12.2 14C.3 52.2 2 59.8 6.6 65.1c4.8 5.6 12.5 8.3 19.8 7.1.7 4.4 1.1 8.9 1.4 13.4.2 4.4.1 8.9.1 13.4H0v151h640V98.9h-30.6z"/></svg>