<svg viewBox="0 0 640 257">
<path d="M624.6 266.14l-36.47-49.97c-2.33-3.2-7.1-3.2-9.44 0l-19.1 26.13c-2.34 3.2-7.06 3.23-9.4.07l-31.4-42.08c-2.35-3.17-7.04-3.17-9.38 0l-43.3 58.04c-2.35 3.14-7.04 3.14-9.38 0L431 223.82c-2.35-3.14-7.03-3.14-9.37 0l-24.78 33.22c-2.34 3.14-7.03 3.14-9.37 0l-45.25-60.7c-2.35-3.12-7.03-3.12-9.37 0L285.7 259.6c-2.34 3.16-7.05 3.14-9.38-.03L257.4 233.8c-2.36-3.2-7.1-3.2-9.44 0l-11.02 15c-2.34 3.2-7.1 3.2-9.43 0l-23.74-32.6c-2.34-3.2-7.1-3.2-9.45 0l-19.06 26.13c-2.33 3.2-7.05 3.22-9.4.06l-31.4-42.1c-2.34-3.15-7.03-3.15-9.36 0l-41.44 55.53c-2.33 3.12-7 3.14-9.34.03L51.5 225.7c-2.36-3.1-7-3.1-9.34 0L11.5 266.23c-1.1 1.46-2.82 2.32-4.65 2.32H0V451h640V268.55h-10.7c-1.86 0-3.6-.9-4.7-2.4"/>
</svg>