<svg viewBox="0 0 640 238">
<path d="M635.12 315.85v-20.1c0-.43-.2-.84-.53-1.1l-11.9-9.5c-.5-.4-1.3-.4-1.8 0l-7.6 6.07c-.9.74-2.3.08-2.3-1.1v-32.9c0-1.42-1.2-2.58-2.6-2.58-1.5 0-2.6 1.16-2.6 2.6v60.02h-2.6v-76.9c0-1.44-1.2-2.6-2.6-2.6-1.5 0-2.6 1.16-2.6 2.6v76.9h-2.6v-60.03c0-1.43-1.2-2.6-2.6-2.6-1.5 0-2.6 1.17-2.6 2.6v58.62c0 .78-.7 1.4-1.4 1.4h-4.4c-.8 0-1.4-.62-1.4-1.4V296.8c0-.43-.2-.83-.6-1.1l-11.27-9c-.5-.4-1.26-.4-1.78 0l-11.28 9c-.3.27-.5.67-.5 1.1v19.05c0 .78-.65 1.4-1.4 1.4h-4.86c-.74 0-1.4-.62-1.4-1.4v-45.02c0-.78-.6-1.4-1.4-1.4H528c-.8 0-1.4.62-1.4 1.4v45.02c0 .78-.63 1.4-1.4 1.4h-7.44c-.8 0-1.4-.62-1.4-1.4v-45.02c0-.78-.65-1.4-1.4-1.4h-20.6c-.8 0-1.4.62-1.4 1.4v45.02c0 .78-.67 1.4-1.45 1.4H490c-.8 0-1.4-.62-1.4-1.4V238.4c0-1.6-1.3-2.92-2.94-2.92-1.6 0-2.94 1.3-2.94 2.93v78.9h-1.94V217c0-1.62-1.34-2.93-2.95-2.93-1.6 0-2.92 1.3-2.92 2.93v100.3h-2v-78.9c0-1.6-1.3-2.92-2.9-2.92-1.6 0-2.9 1.3-2.9 2.93v77.5c0 .8-.6 1.4-1.4 1.4h-2c-.7 0-1.4-.6-1.4-1.4v-34.7c0-.7-.6-1.4-1.4-1.4h-13.1c-.7 0-1.4.7-1.4 1.4V316c0 .78-.6 1.4-1.4 1.4h-15.6c-.8 0-1.4-.62-1.4-1.4v-61.4c0-.77-.6-1.4-1.4-1.4h-29.7c-.8 0-1.4.63-1.4 1.4v61.36c0 .78-.6 1.4-1.4 1.4h-9.9c-.76 0-1.4-.62-1.4-1.4v-19.5c0-.43-.2-.84-.52-1.1l-11.5-9.22c-.5-.4-1.2-.4-1.7 0l-11.5 9.2c-.3.3-.5.7-.5 1.1v19.53c0 .76-.6 1.4-1.4 1.4h-2.72c-.8 0-1.4-.64-1.4-1.4v-67.3c0-.78-.62-1.4-1.4-1.4h-22v-1.97h15.6c1.1 0 1.98-.87 1.98-1.95 0-1.1-.85-2-1.93-2H328v-2h9.73c1.1 0 1.95-.85 1.95-1.93s-.86-1.95-1.94-1.95H328v-1.95h3.9c1.1 0 2-.86 2-1.94 0-1.05-.88-1.93-1.96-1.93h-6.4c-.8 0-1.4.65-1.4 1.4v84.87c0 .78-.64 1.4-1.4 1.4H321c-.78 0-1.4-.62-1.4-1.4v-20.2c0-.43-.2-.84-.53-1.1l-11.88-9.52c-.6-.4-1.3-.4-1.8 0l-11.9 9.5c-.4.28-.6.7-.6 1.1v20.17c0 .78-.7 1.4-1.4 1.4h-11.6c-.8 0-1.4-.62-1.4-1.4V295.7c0-.43-.2-.84-.6-1.1l-11.9-9.52c-.5-.4-1.3-.4-1.8 0l-5.2 4.16c-.9.74-2.3.1-2.3-1.1v-29.77c0-.78-.6-1.4-1.4-1.4H249c-1.06 0-1.94.86-1.94 1.94 0 1.1.87 2 1.94 2h3.9v2h-9.74c-1.1 0-1.96.9-1.96 2s.88 2 1.96 2h9.8v2h-15.62c-1.08 0-1.95.9-1.95 2s.8 1.96 1.9 1.96h15.6v2.3h-21.6c-.8 0-1.4.6-1.4 1.4v14.4c0 1.2-1.4 1.83-2.3 1.1l-8.4-6.75c-.6-.4-1.3-.4-1.8 0l-11.9 9.5c-.4.3-.6.7-.6 1.1V316c0 .76-.7 1.4-1.4 1.4h-7.4c-.8 0-1.4-.64-1.4-1.4v-61.4c0-.8-.7-1.4-1.4-1.4h-29.7c-.8 0-1.4.6-1.4 1.4v61.34c0 .8-.7 1.4-1.5 1.4s-1.4-.6-1.4-1.4v-45c0-.8-.7-1.4-1.4-1.4h-20.6c-.8 0-1.4.6-1.4 1.4v45c0 .8-.7 1.4-1.4 1.4H127c-.78 0-1.4-.6-1.4-1.4v-45c0-.8-.64-1.4-1.4-1.4h-20.6c-.7 0-1.4.6-1.4 1.4v45c0 .8-.6 1.4-1.4 1.4H92c-.78 0-1.4-.6-1.4-1.4v-34.4c0-.8-.64-1.4-1.42-1.4H69.7c-.78 0-1.42-.64-1.42-1.4v-21.4c0-1.44-1.16-2.6-2.6-2.6-1.42 0-2.58 1.16-2.58 2.6v60.02h-2.62v-76.9c0-1.43-1.16-2.6-2.6-2.6-1.43 0-2.6 1.17-2.6 2.6v76.9h-2.6V257.3c0-1.43-1.17-2.6-2.6-2.6-1.43 0-2.6 1.17-2.6 2.6v58.62c0 .78-.62 1.4-1.4 1.4h-6.32c-.78 0-1.4-.62-1.4-1.4V231.1c0-.78-.64-1.4-1.4-1.4h-6.4c-1.1 0-1.96.87-1.96 1.94 0 1.07.87 1.95 1.95 1.95h3.9v1.9H24.7c-1.08 0-1.96.8-1.96 1.9s.88 1.9 1.95 1.9h9.7v1.92H18.8c-1.1 0-1.95.87-1.95 1.95 0 1 .86 1.9 1.94 1.9h15.6V247h-22c-.8 0-1.4.6-1.4 1.4v67.24c0 .8-.7 1.4-1.4 1.4H0V452h640V317.26h-3.47c-.78 0-1.4-.63-1.4-1.4" id="a"/></svg>