<svg id="Scenery" xmlns="http://www.w3.org/2000/svg" xmlns:xlink="http://www.w3.org/1999/xlink" viewBox="0 0 500 400">
  <defs>
    <style>
      .cls-1, .cls-10, .cls-11, .cls-12, .cls-13, .cls-14, .cls-16, .cls-19, .cls-21, .cls-23, .cls-24, .cls-26, .cls-27, .cls-29, .cls-3, .cls-30, .cls-32, .cls-4, .cls-5, .cls-6, .cls-7, .cls-8, .cls-9 {
        fill: none;
      }

      .cls-1, .cls-24, .cls-26 {
        stroke: #d69642;
      }

      .cls-1, .cls-10, .cls-11, .cls-12, .cls-13, .cls-14, .cls-16, .cls-17, .cls-18, .cls-19, .cls-2, .cls-20, .cls-21, .cls-23, .cls-24, .cls-26, .cls-27, .cls-29, .cls-3, .cls-30, .cls-32, .cls-4, .cls-5, .cls-6, .cls-7, .cls-8, .cls-9 {
        stroke-linecap: round;
      }

      .cls-1, .cls-10, .cls-11, .cls-12, .cls-13, .cls-14, .cls-16, .cls-17, .cls-18, .cls-19, .cls-2, .cls-20, .cls-3, .cls-4, .cls-5, .cls-6, .cls-7, .cls-8, .cls-9 {
        stroke-linejoin: round;
      }

      .cls-1, .cls-19, .cls-4 {
        stroke-width: 3px;
      }

      .cls-2, .cls-20 {
        fill: #d9c6b8;
        stroke: #d9c6b8;
      }

      .cls-17, .cls-18, .cls-2, .cls-20 {
        stroke-width: 2px;
      }

      .cls-3, .cls-5, .cls-6, .cls-7, .cls-8 {
        stroke: #559319;
      }

      .cls-3 {
        stroke-width: 12px;
      }

      .cls-27, .cls-29, .cls-4 {
        stroke: #8cc63f;
      }

      .cls-5 {
        stroke-width: 21px;
      }

      .cls-6 {
        stroke-width: 20px;
      }

      .cls-10, .cls-7 {
        stroke-width: 10px;
      }

      .cls-8 {
        stroke-width: 15px;
      }

      .cls-10, .cls-11, .cls-12, .cls-13, .cls-14, .cls-16, .cls-9 {
        stroke: #f0c2c0;
      }

      .cls-9 {
        stroke-width: 8px;
      }

      .cls-11, .cls-16 {
        stroke-width: 4px;
      }

      .cls-12, .cls-21, .cls-23, .cls-24, .cls-26, .cls-27, .cls-29, .cls-30, .cls-32 {
        stroke-width: 5px;
      }

      .cls-13 {
        stroke-width: 9px;
      }

      .cls-14 {
        stroke-width: 7px;
      }

      .cls-15 {
        fill: #f08d8a;
      }

      .cls-15, .cls-16 {
        fill-rule: evenodd;
      }

      .cls-17, .cls-31 {
        fill: #71a2a8;
      }

      .cls-17, .cls-30, .cls-32 {
        stroke: #71a2a8;
      }

      .cls-18 {
        fill: #b7d0d3;
      }

      .cls-18, .cls-19 {
        stroke: #b7d0d3;
      }

      .cls-20 {
        opacity: 0.5;
      }

      .cls-21, .cls-23 {
        stroke: #f18d8a;
      }

      .cls-21, .cls-23, .cls-24, .cls-26, .cls-27, .cls-29, .cls-30, .cls-32 {
        stroke-miterlimit: 10;
      }

      .cls-22 {
        fill: #f18d8a;
      }

      .cls-23, .cls-26, .cls-29, .cls-32 {
        opacity: 0.4;
      }

      .cls-25 {
        fill: #d69642;
      }

      .cls-28 {
        fill: #8cc63f;
      }
    </style>
    <symbol id="D_Stack2" data-name="D_Stack2" viewBox="0 0 20 28">
      <polygon class="cls-2" points="19 27 1 27 9 18 9 1 11 1 11 18 19 27"/>
    </symbol>
    <symbol id="D_Stack1" data-name="D_Stack1" viewBox="0 0 24 28">
      <polygon class="cls-2" points="23 27 1 27 7 17 7 1 17 1 17 17 23 27"/>
    </symbol>
    <symbol id="D_Cactus" data-name="D_Cactus" viewBox="0 0 13 32">
      <polyline class="cls-1" points="7 26 7 31 7 2"/>
      <path class="cls-1" d="M2,13v3c0,5,5,5,5,10v5"/>
      <path class="cls-1" d="M7,31V21c0-4,5-4,5-8V8"/>
    </symbol>
    <symbol id="F_Tree2" data-name="F_Tree2" viewBox="0 0 27 39">
      <line class="cls-6" x1="10" y1="10" x2="10" y2="10"/>
      <line class="cls-7" x1="8" y1="19" x2="8" y2="19"/>
      <path class="cls-4" d="M8,13v5c0,5,6,10,6,15v5"/>
      <path class="cls-4" d="M14,38V28c0-4,7-4,7-8V15"/>
      <line class="cls-3" x1="21" y1="15" x2="21" y2="15"/>
    </symbol>
    <symbol id="F_Tree1" data-name="F_Tree1" viewBox="0 0 30 37">
      <line class="cls-3" x1="24" y1="16" x2="24" y2="16"/>
      <path class="cls-4" d="M15,36V30c0-4-1-17-4-19"/>
      <line class="cls-5" x1="11" y1="11" x2="11" y2="11"/>
      <path class="cls-4" d="M15,36V31c0-4,1-5,4-7s5-4,5-8"/>
    </symbol>
    <symbol id="F_Tree3" data-name="F_Tree3" viewBox="0 0 39 53">
      <line class="cls-6" x1="20" y1="27" x2="20" y2="27"/>
      <path class="cls-4" d="M21,52V44a6,6,0,0,1,3-5l5-3a6,6,0,0,0,3-5h0"/>
      <path class="cls-4" d="M21,52V37a8,8,0,0,0-4-7l-5-3a6,6,0,0,1-3-5V20"/>
      <path class="cls-4" d="M21,52V27a8,8,0,0,1,1-4l3-5a10,10,0,0,0,1-5V11"/>
      <line class="cls-5" x1="26" y1="11" x2="26" y2="11"/>
      <line class="cls-8" x1="8" y1="19" x2="8" y2="19"/>
      <line class="cls-8" x1="32" y1="30" x2="32" y2="30"/>
    </symbol>
    <symbol id="Moutain" data-name="Moutain" viewBox="0 0 60 42">
      <polygon class="cls-15" points="30 2 0 42 60 42 30 2"/>
      <polyline class="cls-16" points="17 19 30 2 43 19"/>
    </symbol>
    <symbol id="M_Cloud1" data-name="M_Cloud1" viewBox="0 0 19 11">
      <line class="cls-9" x1="12" y1="4" x2="12" y2="4"/>
      <line class="cls-10" x1="7" y1="6" x2="7" y2="6"/>
      <line class="cls-11" x1="17" y1="7" x2="17" y2="7"/>
      <line class="cls-12" x1="3" y1="6" x2="3" y2="6"/>
    </symbol>
    <symbol id="M_Cloud2" data-name="M_Cloud2" viewBox="0 0 19 10">
      <line class="cls-13" x1="12" y1="5" x2="12" y2="5"/>
      <line class="cls-14" x1="6" y1="6" x2="6" y2="6"/>
      <line class="cls-12" x1="16" y1="8" x2="16" y2="8"/>
      <line class="cls-11" x1="2" y1="7" x2="2" y2="7"/>
    </symbol>
    <symbol id="U_Scraper2" data-name="U_Scraper2" viewBox="0 0 22 39">
      <line class="cls-19" x1="2" y1="32" x2="20" y2="32"/>
      <line class="cls-19" x1="2" y1="38" x2="20" y2="38"/>
      <line class="cls-19" x1="2" y1="27" x2="20" y2="27"/>
      <line class="cls-19" x1="2" y1="22" x2="20" y2="22"/>
      <line class="cls-19" x1="2" y1="17" x2="20" y2="17"/>
      <line class="cls-19" x1="2" y1="12" x2="20" y2="12"/>
      <line class="cls-19" x1="2" y1="7" x2="20" y2="7"/>
      <line class="cls-19" x1="2" y1="2" x2="20" y2="2"/>
    </symbol>
    <symbol id="U_Scraper3" data-name="U_Scraper3" viewBox="0 0 11 59">
      <line class="cls-19" x1="2" y1="58" x2="2" y2="13"/>
      <line class="cls-19" x1="6" y1="58" x2="6" y2="2"/>
      <line class="cls-19" x1="10" y1="58" x2="10" y2="13"/>
    </symbol>
    <symbol id="U_Scraper1" data-name="U_Scraper1" viewBox="0 0 14 51">
      <rect class="cls-18" x="1" y="10" width="12" height="40"/>
      <line class="cls-18" x1="1" y1="7" x2="10" y2="7"/>
      <line class="cls-18" x1="1" y1="4" x2="7" y2="4"/>
      <line class="cls-18" x1="1" y1="1" x2="4" y2="1"/>
    </symbol>
    <symbol id="U_Building1" data-name="U_Building1" viewBox="0 0 12 30">
      <rect class="cls-17" x="1" y="1" width="10" height="28"/>
    </symbol>
    <symbol id="U_Building2" data-name="U_Building2" viewBox="0 0 12 16">
      <polygon class="cls-17" points="11 5 6 1 1 5 1 15 11 15 11 5"/>
    </symbol>
  </defs>
  <title>SceneryStrips_Assets</title>
  <g id="Desert">
    <polygon class="cls-2" points="406 174 382 174 393 161 393 139 395 139 395 161 406 174"/>
    <use width="20" height="28.45" transform="translate(241 147)" xlink:href="#D_Stack2"/>
    <polygon class="cls-2" points="367 174 345 174 351 164 351 148 360 148 360 164 367 174"/>
    <polygon class="cls-20" points="354 174 320 174 330 158 330 134 344 134 344 158 354 174"/>
    <polygon class="cls-20" points="282 174 256 174 264 162 264 144 274 144 274 162 282 174"/>
    <polygon class="cls-2" points="397 174 375 174 381 164 381 148 390 148 390 164 397 174"/>
    <polygon class="cls-2" points="125 174 107 174 115 164 115 148 117 148 117 164 125 174"/>
    <polygon class="cls-2" points="188 174 166 174 172 164 172 148 181 148 181 164 188 174"/>
    <polygon class="cls-20" points="211 174 177 174 187 158 187 134 201 134 201 158 211 174"/>
    <polygon class="cls-20" points="138 174 113 174 120 162 120 144 131 144 131 162 138 174"/>
    <use width="24" height="27.88" transform="translate(230 147)" xlink:href="#D_Stack1"/>
    <use id="D_Cactus-3" data-name="D_Cactus" width="13" height="32" transform="translate(304 143)" xlink:href="#D_Cactus"/>
    <use width="13" height="32" transform="translate(406 143)" xlink:href="#D_Cactus"/>
    <use width="13" height="32" transform="matrix(-1, 0, 0, 0.8, 370.5, 148.49)" xlink:href="#D_Cactus"/>
    <use id="D_Cactus-10" data-name="D_Cactus" width="13" height="32" transform="translate(160 143)" xlink:href="#D_Cactus"/>
    <use width="13" height="32" transform="matrix(-1, 0, 0, 0.8, 227.02, 148.49)" xlink:href="#D_Cactus"/>
    <use width="13" height="32" transform="matrix(-1, 0, 0, 0.8, 97.27, 148.49)" xlink:href="#D_Cactus"/>
  </g>
  <g id="Forest">
    <g id="D_Cactus-15" data-name="D_Cactus">
      <use width="27" height="39" transform="translate(370 215)" xlink:href="#F_Tree2"/>
      <use width="30" height="37" transform="translate(408 219)" xlink:href="#F_Tree1"/>
      <use width="39" height="53" transform="translate(328 203)" xlink:href="#F_Tree3"/>
      <use width="27" height="39" transform="translate(225 215)" xlink:href="#F_Tree2"/>
      <use width="30" height="37" transform="translate(262 219)" xlink:href="#F_Tree1"/>
      <use width="39" height="53" transform="translate(182 203)" xlink:href="#F_Tree3"/>
      <use width="27" height="39" transform="translate(345 215)" xlink:href="#F_Tree2"/>
      <use width="30" height="37" transform="matrix(-1, 0, 0, 1, 416.75, 218.5)" xlink:href="#F_Tree1"/>
      <use width="30" height="37" transform="translate(279 217)" xlink:href="#F_Tree1"/>
      <use width="39" height="53" transform="translate(299 203)" xlink:href="#F_Tree3"/>
      <use width="27" height="39" transform="translate(199 215)" xlink:href="#F_Tree2"/>
      <use width="30" height="37" transform="matrix(-1, 0, 0, 1, 271.33, 218.5)" xlink:href="#F_Tree1"/>
      <use width="30" height="37" transform="translate(134 217)" xlink:href="#F_Tree1"/>
      <use width="39" height="53" transform="translate(154 203)" xlink:href="#F_Tree3"/>
    </g>
  </g>
  <g id="Mountains">
    <use width="60" height="42" transform="translate(306 67) scale(0.64)" xlink:href="#Moutain"/>
    <use width="60" height="42" transform="translate(221 72) scale(0.52)" xlink:href="#Moutain"/>
    <use width="19" height="10.95" transform="translate(281 55) scale(1.31 1.47)" xlink:href="#M_Cloud1"/>
    <use width="19" height="10" transform="translate(230 65) scale(0.93)" xlink:href="#M_Cloud2"/>
    <use width="19" height="10" transform="translate(327 66)" xlink:href="#M_Cloud2"/>
    <use width="19" height="10.95" transform="translate(389 57)" xlink:href="#M_Cloud1"/>
    <use width="60" height="42" transform="translate(250 52)" xlink:href="#Moutain"/>
    <use id="Moutain-9" data-name="Moutain" width="60" height="42" transform="translate(345 54) scale(0.94)" xlink:href="#Moutain"/>
    <use id="Moutain-12" data-name="Moutain" width="60" height="42" transform="translate(381 64) scale(0.73)" xlink:href="#Moutain"/>
    <use width="60" height="42" transform="translate(112 67) scale(0.64)" xlink:href="#Moutain"/>
    <use width="19" height="10" transform="translate(133 66)" xlink:href="#M_Cloud2"/>
    <use width="19" height="10.95" transform="translate(195 57)" xlink:href="#M_Cloud1"/>
    <use id="Moutain-17" data-name="Moutain" width="60" height="42" transform="translate(151 54) scale(0.94)" xlink:href="#Moutain"/>
    <use id="Moutain-20" data-name="Moutain" width="60" height="42" transform="translate(187 64) scale(0.73)" xlink:href="#Moutain"/>
  </g>
  <g id="Urban">
    <use id="U_Scraper2-3" data-name="U_Scraper2" width="22" height="39" transform="translate(309 297)" xlink:href="#U_Scraper2"/>
    <use id="U_Scraper3-3" data-name="U_Scraper3" width="11" height="59" transform="translate(347 277)" xlink:href="#U_Scraper3"/>
    <use width="14" height="51" transform="matrix(-1, 0, 0, 1, 126.66, 284.5)" xlink:href="#U_Scraper1"/>
    <use width="22" height="39" transform="translate(184 297) scale(0.48 1)" xlink:href="#U_Scraper2"/>
    <use width="11" height="59" transform="translate(135 289) scale(1 0.79)" xlink:href="#U_Scraper3"/>
    <use width="11" height="59" transform="translate(409 288) scale(1 0.79)" xlink:href="#U_Scraper3"/>
    <use id="U_Scraper1-5" data-name="U_Scraper1" width="14" height="51" transform="translate(266 285)" xlink:href="#U_Scraper1"/>
    <use width="12" height="30" transform="translate(377 306)" xlink:href="#U_Building1"/>
    <use width="12" height="30" transform="translate(360 306)" xlink:href="#U_Building1"/>
    <use width="12" height="30" transform="translate(340 316) scale(0.67)" xlink:href="#U_Building1"/>
    <use width="12" height="30" transform="translate(177 306)" xlink:href="#U_Building1"/>
    <use width="12" height="30" transform="translate(159 306)" xlink:href="#U_Building1"/>
    <use width="12" height="30" transform="translate(140 316) scale(0.67)" xlink:href="#U_Building1"/>
    <use width="12" height="16" transform="translate(402 320)" xlink:href="#U_Building2"/>
    <use width="12" height="16" transform="translate(289 318)" xlink:href="#U_Building2"/>
    <use width="12" height="16" transform="translate(421 320)" xlink:href="#U_Building2"/>
    <use width="12" height="16" transform="translate(261 324) scale(0.75)" xlink:href="#U_Building2"/>
    <use width="12" height="16" transform="translate(236 324) scale(0.75)" xlink:href="#U_Building2"/>
    <use width="12" height="16" transform="translate(248 324) scale(0.75)" xlink:href="#U_Building2"/>
  </g>
  <g>
    <line class="cls-21" x1="90" y1="94" x2="450" y2="94"/>
    <circle class="cls-22" cx="450" cy="94" r="6"/>
    <line class="cls-23" x1="50" y1="94" x2="100" y2="94"/>
    <line class="cls-23" x1="70" y1="94" x2="120" y2="94"/>
  </g>
  <g>
    <line class="cls-24" x1="90" y1="174" x2="450" y2="174"/>
    <circle class="cls-25" cx="450" cy="174" r="6"/>
    <line class="cls-26" x1="50" y1="174" x2="100" y2="174"/>
    <line class="cls-26" x1="70" y1="174" x2="120" y2="174"/>
  </g>
  <g>
    <line class="cls-27" x1="90" y1="254" x2="450" y2="254"/>
    <circle class="cls-28" cx="450" cy="254" r="6"/>
    <line class="cls-29" x1="50" y1="254" x2="100" y2="254"/>
    <line class="cls-29" x1="70" y1="254" x2="120" y2="254"/>
  </g>
  <g>
    <line class="cls-30" x1="90" y1="334" x2="450" y2="334"/>
    <circle class="cls-31" cx="450" cy="334" r="6"/>
    <line class="cls-32" x1="50" y1="334" x2="100" y2="334"/>
    <line class="cls-32" x1="70" y1="334" x2="120" y2="334"/>
  </g>
</svg>
